# xmcd CD database file
#
# Track frame offsets:
#	150
#	23398
#	46056
#	69397
#	92701
#	115269
#	138621
#	157702
#	179890
#	197871
#	219839
#	243546
#	266067
#	289961
#	310645
#	331590
#
# Disc length: 4723 seconds
#
# Revision: 0
# Processed by: cddbd v1.5.2PL0 Copyright (c) Steve Scherf et al.
# Submitted via: CDex 1.51
#
DISCID=de127110
DTITLE=Various Artist - Salsa Legends, Los Romanticos Vol. 1
DYEAR=2014
DGENRE=Salsa
TTITLE0=Vega, Tony - Lo Mio Es Amor
TTITLE1=Quinones, Domingo - Tu Como Estas
TTITLE2=Santiago, Eddie - Que Locura Enamorarme De Ti
TTITLE3=Rodriguez, Lalo - Ven Devorame Otra Vez
TTITLE4=Rivera, Johnny - Voy A Conquistar Tu Amor
TTITLE5=Vega, Tony - Dame Tiempo
TTITLE6=Quinones, Domingo - Si Tu Te Vas
TTITLE7=Santiago, Eddie - Lluvia
TTITLE8=Rodriguez, Lalo - No Tuve Nadie
TTITLE9=Rivera, Johnny - Se Parecia Tanto A Ti
TTITLE10=Vega, Tony - Esa Mujer
TTITLE11=Quinones, Domingo - Ensename
TTITLE12=Santiago, Eddie - Antidoto Y Veneno
TTITLE13=Rodriguez, Lalo - Te Estoy Pidiendo 
TTITLE14=Rivera, Johnny - Por Eso Esta Conmigo
TTITLE15=Vega, Tony - Su Recuerdo
EXTD=YEAR: 2014
EXTT0=
EXTT1=
EXTT2=
EXTT3=
EXTT4=
EXTT5=
EXTT6=
EXTT7=
EXTT8=
EXTT9=
EXTT10=
EXTT11=
EXTT12=
EXTT13=
EXTT14=
EXTT15=
PLAYORDER=
